<?xml version="1.0" standalone="no"?><!DOCTYPE svg PUBLIC "-//W3C//DTD SVG 1.1//EN" "http://www.w3.org/Graphics/SVG/1.1/DTD/svg11.dtd"><svg t="1743676126979" class="icon" viewBox="0 0 1024 1024" version="1.1" xmlns="http://www.w3.org/2000/svg" p-id="1560" xmlns:xlink="http://www.w3.org/1999/xlink" width="200" height="200"><path d="M852.1216 201.3696c-4.8128-33.5872-25.6-40.96-55.8592-41.984-163.072-4.7104-290.2528 61.44-384.9216 195.84A165.0176 165.0176 0 0 1 353.28 405.6576a343.04 343.04 0 0 0-160.256 163.84 39.936 39.936 0 0 0 2.7136 33.9456c4.1984 5.8368 20.8896 5.888 30.72 3.2768 28.416-7.68 55.7568-19.8656 84.4288-26.2144 10.24-2.2016 25.0368 4.6592 33.9456 12.1344 47.5648 39.8336 89.3952 89.344 141.9264 119.8592 66.56 38.6048 81.3568 87.04 62.8224 156.1088-2.8672 10.7008 2.3552 30.72 10.24 35.2256s26.112-1.3824 35.2768-8.6528A321.3312 321.3312 0 0 0 710.3488 711.68c8.0896-35.84 25.2416-62.0032 48.128-88.7296 44.544-52.0192 73.4208-99.072 89.4976-157.1328 38.4-114.6368 4.1472-264.448 4.1472-264.448z" fill="#8CECFF" p-id="1561"></path><path d="M411.3408 843.3152c28.672-35.4816 9.1136-107.52-33.28-141.9264l-0.512-0.3584a3.072 3.072 0 0 1-0.4096-0.4096c-42.3936-34.2016-117.0944-38.1952-145.7664-2.7136-31.4368 38.912-62.6688 136.2432-80.0768 209.5616-9.3696 39.4752 36.4544 76.2368 72.96 58.5728 68.5056-33.1776 157.1328-85.4016 187.0848-122.7264z" fill="#FFDE73" p-id="1562"></path><path d="M634.112 410.0096m-130.56 0a130.56 130.56 0 1 0 261.12 0 130.56 130.56 0 1 0-261.12 0Z" fill="#FFDE73" p-id="1563"></path><path d="M869.4784 150.784c-9.728-60.7744-62.6176-62.1568-82.6368-62.72-183.04-4.8128-330.752 69.0688-438.6816 219.6992a157.2864 157.2864 0 0 1-54.6816 46.848c-83.8656 41.8816-146.176 104.4992-185.3952 186.0608a64.256 64.256 0 0 0 5.12 59.9552c16.6912 22.6816 57.3952 12.1856 57.8048 12.032 14.2848-3.7888 28.2112-8.5504 41.6256-13.1072a463.104 463.104 0 0 1 48.9472-14.7456 36.4032 36.4032 0 0 1 17.8176 8.0896c17.152 14.08 34.0992 29.8496 50.5344 45.1072 32.9728 30.72 67.0208 62.208 106.9056 84.8896 59.648 33.8944 75.7248 73.3184 57.2416 140.5952-5.12 17.8176 1.3312 52.3776 21.9136 63.7952a39.1168 39.1168 0 0 0 19.3024 4.608 78.4896 78.4896 0 0 0 44.544-15.9232 365.312 365.312 0 0 0 134.144-209.408c6.8608-29.5424 20.48-54.1696 47.5136-84.992 53.7088-61.44 84.2752-113.8688 101.888-174.5408a12.7488 12.7488 0 0 0 0.5632-1.4848c43.2128-126.208 7.5264-286.1568 5.5296-294.7584z m-48.4352 277.9648a25.6 25.6 0 0 0-1.28 3.4816c-15.36 54.7328-43.3664 102.4-92.9792 159.1808-22.4768 25.6-46.8992 58.368-57.7024 104.9088a320.5632 320.5632 0 0 1-117.76 183.3984 36.2496 36.2496 0 0 1-11.6736 5.12 25.9584 25.9584 0 0 1-1.1776-9.3696c23.9616-87.3472-1.0752-148.48-78.8992-192.8704-35.2256-20.0192-65.8944-48.4352-98.3552-78.592-16.896-15.7184-34.4064-31.9488-52.6336-46.9504-9.1648-7.4752-28.0576-18.5344-47.0016-18.5344a45.4144 45.4144 0 0 0-9.472 0.9728 508.416 508.416 0 0 0-54.3744 16.2304c-13.312 4.5056-25.6 8.8064-38.656 12.2368a38.7072 38.7072 0 0 1-9.7792 0.9728 20.48 20.48 0 0 1 0.3072-8.4992c35.1744-73.1648 88.9344-127.0784 164.352-164.8128a203.2128 203.2128 0 0 0 71.68-61.44c99.9936-139.4176 230.912-204.8 400.128-200.4992 31.744 0.8704 36.1472 8.2944 38.5536 24.9856a21.1456 21.1456 0 0 0 0.6656 3.2256c3.1744 15.8208 32.3072 158.0032-3.9424 266.8544z" fill="#474747" p-id="1564"></path><path d="M403.3536 763.2384a114.5344 114.5344 0 0 0-38.1952-64.4608l-0.3072-0.256a114.2784 114.2784 0 0 0-70.912-23.7568c-28.6208 0-53.4528 10.24-68.096 28.5184-33.9456 42.0864-62.3616 145.5104-67.7376 165.8368a58.5216 58.5216 0 0 0 20.7872 60.9792 60.16 60.16 0 0 0 37.6832 13.568 57.344 57.344 0 0 0 26.112-6.7072c51.5072-26.4704 120.9344-68.864 147.0976-101.2736 14.6944-18.0224 19.8144-44.4416 13.568-72.448z m-49.408 43.5712c-19.2512 23.808-81.152 62.9248-132.352 89.2416a14.1312 14.1312 0 0 1-19.2-15.36c14.6944-55.808 38.6048-123.392 59.0336-148.48 5.7344-7.1168 17.7664-11.3664 32.2048-11.4176a69.0176 69.0176 0 0 1 41.3184 13.056l0.6656 0.5632 0.4608 0.3584 0.7168 0.5632A69.0176 69.0176 0 0 1 358.4 773.12c2.9184 13.8752 1.28 26.5728-4.4544 33.6896zM614.7584 276.0704A122.5216 122.5216 0 1 0 737.28 398.592a122.88 122.88 0 0 0-122.5216-122.5216z m0 198.9632A76.4416 76.4416 0 1 1 691.2 398.592a76.8 76.8 0 0 1-76.4416 76.4416z" fill="#474747" p-id="1565"></path></svg>